<svg width="89" height="105" viewBox="0 0 89 105" fill="none" xmlns="http://www.w3.org/2000/svg">
<path id="D2" d="M1.79245 3.01077C21.0183 1.24821 58.9494 -4.32174 54.0305 29.2415C52.7111 38.2443 50.4837 46.4347 41.6902 49.7042C34.5791 52.3482 32.6095 42.5718 37.1042 37.4868C42.8925 30.9386 49.809 27.5839 59.1822 26.7336C67.2539 26.0013 73.071 26.0598 79.3169 31.396C90.1149 40.6213 88.1935 55.5845 83.1047 69.6435C79.2203 80.3748 76.5478 87.3407 70.9772 94.7337C70.073 95.9338 64.0615 103.288 64.3698 103.125C69.8199 100.246 77.0514 94.698 82.0388 90.8443C83.6476 89.6434 84.8857 88.8535 86.1819 87.8625C87.1273 87.1398 84.3085 89.1576 83.6476 89.6434C77.9792 93.8102 71.3731 98.8789 65.4157 102.553C61.6824 104.855 62.2214 95.5837 62.8309 92.0007C63.8097 86.2464 64.6593 81.252 64.7757 77.1803" stroke="white" stroke-width="2.87443" stroke-linecap="round"/>
</svg>
