<svg width="95" height="96" viewBox="0 0 95 96" fill="none" xmlns="http://www.w3.org/2000/svg">
<path id="Star 3" d="M54.1503 6.87234C52.8536 -0.58605 42.1465 -0.586098 40.8498 6.87232L39.1985 16.3703C38.5388 20.1646 34.154 21.9809 31.0045 19.7643L23.1208 14.2159C16.93 9.85895 9.35894 17.43 13.7159 23.6208L19.2643 31.5045C21.4809 34.6539 19.6646 39.0388 15.8703 39.6985L6.37235 41.3498C-1.08604 42.6465 -1.08608 53.3535 6.37233 54.6502L15.8703 56.3015C19.6646 56.9612 21.4809 61.3461 19.2643 64.4955L13.7159 72.3792C9.35895 78.57 16.93 86.1411 23.1208 81.7841L31.0045 76.2357C34.154 74.0191 38.5388 75.8354 39.1985 79.6297L40.8498 89.1277C42.1465 96.586 52.8535 96.5861 54.1503 89.1277L55.8016 79.6297C56.4612 75.8354 60.8461 74.0191 63.9955 76.2357L71.8792 81.7841C78.07 86.1411 85.6411 78.57 81.2841 72.3792L75.7357 64.4955C73.5192 61.3461 75.3354 56.9612 79.1297 56.3015L88.6277 54.6502C96.0861 53.3535 96.0861 42.6465 88.6277 41.3498L79.1297 39.6985C75.3354 39.0388 73.5191 34.6539 75.7357 31.5045L81.2841 23.6208C85.6411 17.43 78.0701 9.85892 71.8792 14.2159L63.9955 19.7643C60.8461 21.9809 56.4612 20.1646 55.8016 16.3703L54.1503 6.87234Z" fill="#CBF7D0" stroke="#A7F1AF" stroke-width="1.5"/>
</svg>
