<svg width="96" height="96" viewBox="0 0 96 96" fill="none" xmlns="http://www.w3.org/2000/svg">
<path id="Star 1" d="M54.6503 6.87234C53.3536 -0.58605 42.6465 -0.586098 41.3498 6.87232L39.6985 16.3703C39.0388 20.1646 34.654 21.9809 31.5045 19.7643L23.6208 14.2159C17.43 9.85895 9.85894 17.43 14.2159 23.6208L19.7643 31.5045C21.9809 34.6539 20.1646 39.0388 16.3703 39.6985L6.87235 41.3498C-0.586042 42.6465 -0.586077 53.3535 6.87233 54.6502L16.3703 56.3015C20.1646 56.9612 21.9809 61.3461 19.7643 64.4955L14.2159 72.3792C9.85895 78.57 17.43 86.1411 23.6208 81.7841L31.5045 76.2357C34.654 74.0191 39.0388 75.8354 39.6985 79.6297L41.3498 89.1277C42.6465 96.586 53.3535 96.5861 54.6503 89.1277L56.3016 79.6297C56.9612 75.8354 61.3461 74.0191 64.4955 76.2357L72.3792 81.7841C78.57 86.1411 86.1411 78.57 81.7841 72.3792L76.2357 64.4955C74.0192 61.3461 75.8354 56.9612 79.6297 56.3015L89.1277 54.6502C96.5861 53.3535 96.5861 42.6465 89.1277 41.3498L79.6297 39.6985C75.8354 39.0388 74.0191 34.6539 76.2357 31.5045L81.7841 23.6208C86.1411 17.43 78.5701 9.85892 72.3792 14.2159L64.4955 19.7643C61.3461 21.9809 56.9612 20.1646 56.3016 16.3703L54.6503 6.87234Z" fill="#876CFF" stroke="#7152FF" stroke-width="1.5"/>
</svg>
